<svg width="421" height="316" viewBox="0 0 421 316" fill="none" xmlns="http://www.w3.org/2000/svg">
<g clip-path="url(#clip0_2921_20061)">
<path d="M93.9238 77.6888L151.936 47.2754L206.711 166.509L141.938 179.505L93.9238 77.6888Z" fill="#328A5A"/>
<path d="M110.051 90.8957C110.051 90.8957 113.708 86.1337 113.655 82.7925C113.576 79.4512 113.445 78.9513 113.445 78.9513L142.201 63.5078C142.201 63.5078 144.91 68.2961 146.91 68.9275C148.909 69.5589 152.619 68.9275 152.619 68.9275L177.113 115.258L200.318 166.061L143.727 165.851L110.051 90.8957Z" fill="#559D77"/>
<path d="M134.44 91.106C137.593 91.106 140.149 88.3851 140.149 85.0286C140.149 81.6721 137.593 78.9512 134.44 78.9512C131.287 78.9512 128.73 81.6721 128.73 85.0286C128.73 88.3851 131.287 91.106 134.44 91.106Z" fill="#328A5A"/>
<path d="M172.115 167.298C174.73 167.298 176.85 165.261 176.85 162.747C176.85 160.233 174.73 158.195 172.115 158.195C169.499 158.195 167.379 160.233 167.379 162.747C167.379 165.261 169.499 167.298 172.115 167.298Z" fill="#328A5A"/>
<path d="M155.872 143.459C167.867 142.355 176.783 132.686 175.786 121.863C174.79 111.041 164.259 103.162 152.264 104.266C140.269 105.37 131.353 115.039 132.349 125.862C133.345 136.685 143.877 144.564 155.872 143.459Z" fill="#328A5A"/>
<path d="M143.806 127.729C143.806 127.729 143.806 125.492 144.148 124.151C144.516 122.809 143.148 120.862 141.201 121.967C139.254 123.072 139.097 125.413 139.254 126.834C139.412 128.255 139.57 128.886 139.57 128.886L139.596 129.281L137.15 130.412C137.15 130.412 136.755 131.307 137.018 132.675C137.281 134.043 138.991 134.174 138.991 134.174L141.649 132.859C141.649 132.859 145.463 138.884 151.146 136.121C156.829 133.359 154.882 127.623 154.882 127.623C154.882 127.623 151.251 120.099 155.777 117.863C160.328 115.626 163.327 119.31 163.512 121.362C163.696 123.414 164.538 125.492 162.117 127.913C159.697 130.333 163.275 131.912 163.827 131.78C164.38 131.622 167.879 128.702 168.484 125.413C168.484 125.413 168.721 123.73 168.405 122.572C168.089 121.414 167.853 121.151 167.853 121.151L170.747 119.783C170.747 119.783 171.115 119.362 170.826 117.705C170.536 116.047 169.01 115.837 169.01 115.837L165.958 117.179C165.958 117.179 163.827 112.39 156.25 112.943C148.699 113.495 148.489 121.993 149.541 124.94C150.594 127.886 152.541 131.044 148.384 132.201C147.779 132.385 144.516 131.622 143.806 127.729Z" fill="#559D77"/>
<path d="M288.823 66.4043L342.888 104.158L274.379 215.025L230.916 162.222L288.823 66.4043Z" fill="#328A5A"/>
<path d="M286.349 87.9252C286.349 87.9252 292.058 88.8723 294.715 87.1096C297.372 85.3468 297.714 84.9785 297.714 84.9785L324.813 103.5C324.813 103.5 322.313 108.42 322.813 110.577C323.313 112.735 325.707 115.813 325.707 115.813L300.713 161.854L271.431 208.974L242.859 156.934L286.349 87.9252Z" fill="#559D77"/>
<path d="M303.477 113.368C306.63 113.368 309.186 110.647 309.186 107.29C309.186 103.934 306.63 101.213 303.477 101.213C300.324 101.213 297.768 103.934 297.768 107.29C297.768 110.647 300.324 113.368 303.477 113.368Z" fill="#328A5A"/>
<path d="M261.489 186.093C263.738 185.304 264.821 182.553 263.907 179.948C262.994 177.342 260.43 175.87 258.181 176.658C255.932 177.447 254.85 180.198 255.763 182.803C256.677 185.409 259.241 186.881 261.489 186.093Z" fill="#328A5A"/>
<path d="M291.834 165.742C301.21 161.334 304.45 148.486 299.071 137.046C293.692 125.606 281.731 119.905 272.355 124.313C262.979 128.721 259.739 141.569 265.118 153.009C270.497 164.45 282.458 170.151 291.834 165.742Z" fill="#328A5A"/>
<path d="M277.509 135.675C277.509 135.675 279.719 135.227 281.087 135.333C282.481 135.438 284.112 133.728 282.665 132.018C281.218 130.308 278.877 130.623 277.509 131.044C276.141 131.465 275.562 131.755 275.562 131.755L275.167 131.86L273.589 129.676C273.589 129.676 272.615 129.439 271.352 129.966C270.063 130.492 270.247 132.176 270.247 132.176L272.063 134.543C272.063 134.543 266.906 139.463 270.695 144.488C274.483 149.54 279.745 146.514 279.745 146.514C279.745 146.514 286.428 141.489 289.479 145.514C292.558 149.54 289.506 153.197 287.533 153.775C285.533 154.354 283.665 155.564 280.824 153.67C277.982 151.776 277.114 155.591 277.377 156.091C277.614 156.59 281.192 159.485 284.507 159.432C284.507 159.432 286.217 159.353 287.269 158.827C288.322 158.301 288.559 158.011 288.559 158.011L290.479 160.59C290.479 160.59 290.953 160.879 292.531 160.247C294.084 159.642 294.005 158.09 294.005 158.09L292.084 155.354C292.084 155.354 296.372 152.328 294.373 145.014C292.373 137.7 283.981 139.147 281.297 140.752C278.614 142.331 275.904 144.857 273.931 141.015C273.694 140.489 273.799 137.148 277.509 135.675Z" fill="#559D77"/>
<path d="M194.476 181.212C221.176 174.66 237.613 148.129 231.19 121.952C224.767 95.7744 197.916 79.8643 171.217 86.4155C144.517 92.9666 128.08 119.498 134.503 145.675C140.926 171.853 167.777 187.763 194.476 181.212Z" fill="#DC952D"/>
<path d="M198.793 180.317C225.492 173.766 241.929 147.234 235.506 121.057C229.083 94.8799 202.232 78.9698 175.533 85.5209C148.834 92.0721 132.396 118.604 138.819 144.781C145.242 170.958 172.093 186.868 198.793 180.317Z" fill="#FCC84E"/>
<path d="M138.545 143.095C157.882 123.679 177.246 104.237 196.583 84.8203C199.688 85.3991 203.423 86.3989 207.449 88.1353C209.764 89.135 211.816 90.1874 213.605 91.2661L146.096 160.223C146.096 160.223 140.097 154.829 138.545 143.095Z" fill="#FEF04F"/>
<path d="M164.459 176.56C186.664 154.197 208.869 131.808 231.048 109.445C232.31 111.839 233.6 114.733 234.678 118.075C235.231 119.811 235.652 121.469 235.967 123.021C217.025 142.411 198.056 161.801 179.113 181.164C177.482 180.927 175.693 180.585 173.799 180.086C170.115 179.138 166.985 177.849 164.459 176.56Z" fill="#F59E1B"/>
<path d="M187.585 170.562C208.232 170.562 224.97 153.824 224.97 133.176C224.97 112.529 208.232 95.791 187.585 95.791C166.937 95.791 150.199 112.529 150.199 133.176C150.199 153.824 166.937 170.562 187.585 170.562Z" fill="#D2753F"/>
<path d="M198.171 167.752C217.349 163.046 229.075 143.662 224.363 124.456C219.65 105.25 200.283 93.4949 181.105 98.2005C161.928 102.906 150.201 122.29 154.914 141.496C159.626 160.702 178.993 172.457 198.171 167.752Z" fill="#FDAA40"/>
<path d="M185.848 117.629C185.848 117.629 189.215 118.26 191.109 119.181C193.004 120.102 196.319 118.628 195.214 115.392C194.135 112.156 190.61 111.262 188.452 111.051C186.295 110.841 185.295 110.946 185.295 110.946L184.69 110.867L183.717 106.868C183.717 106.868 182.48 106 180.375 106C178.271 106 177.56 108.526 177.56 108.526L178.77 112.893C178.77 112.893 168.668 116.918 171.167 126.232C173.666 135.545 182.848 134.256 182.848 134.256C182.848 134.256 195.187 130.941 197.24 138.387C199.292 145.832 192.899 149.305 189.768 148.989C186.611 148.674 183.269 149.331 180.323 145.017C177.376 140.702 173.982 145.622 174.035 146.49C174.087 147.358 177.508 153.462 182.243 155.277C182.243 155.277 184.716 156.119 186.505 155.988C188.294 155.83 188.821 155.567 188.821 155.567L190.057 160.302C190.057 160.302 190.583 160.986 193.162 161.013C195.714 161.039 196.503 158.803 196.503 158.803L195.345 153.83C195.345 153.83 203.133 151.989 204.475 140.491C205.816 128.994 193.109 126.258 188.373 126.995C183.664 127.705 178.376 129.731 177.797 123.154C177.692 122.259 179.77 117.602 185.848 117.629Z" fill="#D2753F"/>
<path d="M188.242 117.154C188.242 117.154 191.61 117.785 193.504 118.706C195.398 119.627 198.713 118.154 197.608 114.918C196.53 111.682 193.004 110.787 190.847 110.577C188.689 110.366 187.69 110.472 187.69 110.472L187.085 110.393L186.111 106.394C186.111 106.394 184.875 105.525 182.77 105.525C180.665 105.525 179.955 108.051 179.955 108.051L181.165 112.418C181.165 112.418 171.062 116.444 173.562 125.757C176.061 135.071 185.243 133.781 185.243 133.781C185.243 133.781 197.582 130.467 199.634 137.912C201.686 145.358 195.293 148.83 192.162 148.515C189.005 148.199 185.664 148.857 182.717 144.542C179.771 140.227 176.377 145.147 176.429 146.015C176.482 146.883 179.902 152.987 184.638 154.803C184.638 154.803 187.111 155.644 188.9 155.513C190.689 155.381 191.215 155.092 191.215 155.092L192.452 159.828C192.452 159.828 192.978 160.512 195.556 160.538C198.108 160.564 198.897 158.328 198.897 158.328L197.74 153.356C197.74 153.356 205.527 151.514 206.869 140.017C208.211 128.52 195.503 125.783 190.768 126.52C186.058 127.23 180.77 129.256 180.192 122.679C180.113 121.784 182.191 117.128 188.242 117.154Z" fill="#FECB51"/>
<path d="M261.988 180.981C288.687 174.43 305.125 147.898 298.702 121.721C292.279 95.544 265.428 79.6339 238.728 86.185C212.029 92.7361 195.592 119.268 202.015 145.445C208.438 171.622 235.289 187.532 261.988 180.981Z" fill="#DC952D"/>
<path d="M266.304 180.087C293.004 173.535 309.441 147.004 303.018 120.827C296.595 94.6494 269.744 78.7393 243.045 85.2905C216.345 91.8416 199.908 118.373 206.331 144.55C212.754 170.728 239.605 186.638 266.304 180.087Z" fill="#FCC84E"/>
<path d="M206.055 142.859C225.392 123.443 244.756 104 264.093 84.584C267.197 85.1628 270.933 86.1625 274.959 87.8989C277.274 88.8987 279.326 89.9511 281.115 91.0297L213.632 159.986C213.632 159.986 207.633 154.593 206.055 142.859Z" fill="#FEF04F"/>
<path d="M231.969 176.324C254.174 153.961 276.379 131.572 298.557 109.209C299.82 111.603 301.109 114.497 302.188 117.838C302.741 119.575 303.161 121.232 303.477 122.785C284.535 142.174 265.566 161.564 246.623 180.928C244.992 180.691 243.203 180.349 241.309 179.849C237.625 178.902 234.494 177.613 231.969 176.324Z" fill="#F59E1B"/>
<path d="M255.094 170.324C275.742 170.324 292.48 153.585 292.48 132.938C292.48 112.291 275.742 95.5527 255.094 95.5527C234.447 95.5527 217.709 112.291 217.709 132.938C217.709 153.585 234.447 170.324 255.094 170.324Z" fill="#D2753F"/>
<path d="M265.708 167.513C284.886 162.808 296.612 143.424 291.9 124.218C287.187 105.012 267.82 93.2566 248.642 97.9622C229.465 102.668 217.738 122.052 222.451 141.258C227.163 160.464 246.53 172.219 265.708 167.513Z" fill="#FDAA40"/>
<path d="M253.359 117.392C253.359 117.392 256.727 118.024 258.621 118.945C260.515 119.865 263.83 118.392 262.725 115.156C261.647 111.92 258.121 111.026 255.964 110.815C253.807 110.605 252.807 110.71 252.807 110.71L252.202 110.631L251.228 106.632C251.228 106.632 249.992 105.764 247.887 105.764C245.782 105.764 245.072 108.289 245.072 108.289L246.282 112.657C246.282 112.657 236.179 116.682 238.679 125.995C241.178 135.309 250.36 134.02 250.36 134.02C250.36 134.02 262.699 130.705 264.751 138.15C266.803 145.596 260.41 149.069 257.279 148.753C254.149 148.437 250.781 149.095 247.834 144.78C244.888 140.466 241.494 145.385 241.547 146.254C241.599 147.122 245.019 153.225 249.755 155.041C249.755 155.041 252.228 155.883 254.017 155.751C255.806 155.62 256.332 155.33 256.332 155.33L257.569 160.066C257.569 160.066 258.095 160.75 260.673 160.776C263.225 160.803 264.015 158.566 264.015 158.566L262.857 153.594C262.857 153.594 270.645 151.752 271.986 140.255C273.328 128.758 260.621 126.022 255.885 126.758C251.149 127.495 245.888 129.495 245.309 122.917C245.23 122.023 247.282 117.366 253.359 117.392Z" fill="#D2753F"/>
<path d="M255.779 116.918C255.779 116.918 259.147 117.549 261.041 118.47C262.935 119.391 266.25 117.917 265.145 114.681C264.04 111.445 260.541 110.551 258.384 110.34C256.227 110.13 255.227 110.235 255.227 110.235L254.622 110.156L253.648 106.157C253.648 106.157 252.412 105.289 250.307 105.289C248.202 105.289 247.492 107.815 247.492 107.815L248.702 112.182C248.702 112.182 238.599 116.207 241.099 125.521C243.598 134.834 252.78 133.545 252.78 133.545C252.78 133.545 265.119 130.23 267.171 137.676C269.223 145.121 262.83 148.594 259.699 148.278C256.542 147.963 253.201 148.62 250.254 144.306C247.308 139.991 243.914 144.911 243.966 145.779C244.019 146.647 247.439 152.751 252.175 154.566C252.175 154.566 254.648 155.408 256.437 155.277C258.226 155.145 258.752 154.856 258.752 154.856L259.989 159.591C259.989 159.591 260.515 160.275 263.093 160.302C265.645 160.328 266.434 158.092 266.434 158.092L265.277 153.119C265.277 153.119 273.064 151.278 274.406 139.78C275.748 128.283 263.041 125.547 258.305 126.284C253.569 127.02 248.307 129.02 247.729 122.443C247.65 121.548 249.702 116.891 255.779 116.918Z" fill="#FECB51"/>
<path d="M226.515 115.322C249.503 109.682 263.656 86.84 258.126 64.3036C252.597 41.7672 229.479 28.0704 206.491 33.7108C183.503 39.3513 169.35 62.1932 174.88 84.7296C180.409 107.266 203.527 120.963 226.515 115.322Z" fill="#DC952D"/>
<path d="M230.22 114.533C253.208 108.893 267.361 86.0509 261.831 63.5145C256.302 40.9781 233.184 27.2813 210.196 32.9218C187.208 38.5623 173.055 61.4041 178.585 83.9405C184.114 106.477 207.232 120.174 230.22 114.533Z" fill="#FCC84E"/>
<path d="M178.35 82.4803C195.003 65.7476 211.657 49.0413 228.311 32.3086C230.994 32.8085 234.204 33.6767 237.651 35.15C239.65 35.9919 241.413 36.9127 242.939 37.8335L184.874 97.2397C184.874 97.2397 179.718 92.583 178.35 82.4803Z" fill="#FEF04F"/>
<path d="M200.688 111.314C219.788 92.0557 238.915 72.7974 258.015 53.5391C259.12 55.5912 260.225 58.0906 261.12 60.9846C261.593 62.4842 261.962 63.9049 262.225 65.2467C245.913 81.9267 229.601 98.633 213.263 115.313C211.843 115.103 210.317 114.813 208.686 114.392C205.528 113.524 202.845 112.393 200.688 111.314Z" fill="#F59E1B"/>
<path d="M220.577 106.132C238.347 106.132 252.753 91.7259 252.753 73.9555C252.753 56.1851 238.347 41.7793 220.577 41.7793C202.806 41.7793 188.4 56.1851 188.4 73.9555C188.4 91.7259 202.806 106.132 220.577 106.132Z" fill="#D2753F"/>
<path d="M229.718 103.723C246.229 99.6723 256.323 82.9807 252.265 66.4418C248.207 49.9029 231.533 39.7795 215.022 43.8307C198.512 47.8819 188.417 64.5735 192.475 81.1124C196.533 97.6513 213.207 107.775 229.718 103.723Z" fill="#FDAA40"/>
<path d="M219.076 60.563C219.076 60.563 221.97 61.1155 223.628 61.9048C225.259 62.694 228.1 61.4312 227.153 58.6424C226.206 55.8536 223.207 55.0907 221.339 54.9065C219.471 54.7223 218.603 54.8276 218.603 54.8276L218.077 54.775L217.235 51.3285C217.235 51.3285 216.182 50.5918 214.341 50.5918C212.525 50.5918 211.92 52.7492 211.92 52.7492L212.973 56.5114C212.973 56.5114 204.264 59.9579 206.422 67.9822C208.579 76.0065 216.472 74.8752 216.472 74.8752C216.472 74.8752 227.074 72.0075 228.863 78.4269C230.626 84.8464 225.128 87.8193 222.418 87.5562C219.708 87.2668 216.84 87.8456 214.288 84.136C211.736 80.4264 208.816 84.6622 208.868 85.3989C208.921 86.1355 211.841 91.3974 215.946 92.9759C215.946 92.9759 218.077 93.7126 219.603 93.5811C221.155 93.4495 221.576 93.2127 221.576 93.2127L222.628 97.2906C222.628 97.2906 223.075 97.8695 225.285 97.8958C227.495 97.9221 228.153 96.0015 228.153 96.0015L227.153 91.7131C227.153 91.7131 233.862 90.1345 235.02 80.216C236.177 70.2974 225.233 67.9822 221.155 68.5873C217.103 69.2187 212.552 70.9551 212.052 65.2986C212.078 64.5357 213.841 60.5367 219.076 60.563Z" fill="#D2753F"/>
<path d="M221.155 60.1685C221.155 60.1685 224.049 60.721 225.706 61.5102C227.337 62.2995 230.179 61.0367 229.231 58.2479C228.284 55.4591 225.285 54.6961 223.417 54.512C221.549 54.3278 220.681 54.433 220.681 54.433L220.155 54.3804L219.313 50.9339C219.313 50.9339 218.261 50.1973 216.419 50.1973C214.604 50.1973 213.998 52.3546 213.998 52.3546L215.051 56.1168C215.051 56.1168 206.342 59.5633 208.5 67.5877C210.657 75.612 218.55 74.4807 218.55 74.4807C218.55 74.4807 229.153 71.613 230.942 78.0324C232.704 84.4519 227.206 87.4248 224.496 87.1617C221.786 86.8723 218.918 87.4511 216.366 83.7415C213.814 80.0319 210.894 84.2677 210.947 85.0044C210.999 85.741 213.92 91.0029 218.024 92.5814C218.024 92.5814 220.155 93.3181 221.681 93.1865C223.233 93.055 223.654 92.8182 223.654 92.8182L224.706 96.8961C224.706 96.8961 225.154 97.4749 227.364 97.5012C229.573 97.5275 230.231 95.607 230.231 95.607L229.231 91.3186C229.231 91.3186 235.94 89.74 237.098 79.8214C238.256 69.9029 227.311 67.5877 223.233 68.1928C219.155 68.7979 214.63 70.5606 214.13 64.9041C214.156 64.1411 215.945 60.1158 221.155 60.1685Z" fill="#FECB51"/>
<path d="M90.031 187.926C89.2417 188.136 68.3259 185.374 64.0374 186.637C59.749 187.926 51.6458 194.529 52.8297 203.895C54.04 213.262 62.2221 230.31 62.5378 231.494C62.8272 232.678 65.2477 237.466 69.3256 238.729C73.4298 240.018 76.929 236.808 76.929 236.808L102.633 203.264L90.031 187.926Z" fill="white"/>
<path d="M94.8977 180.586C95.0819 179.744 92.3457 157.486 93.5033 152.908C94.6609 148.33 100.817 139.648 109.631 140.859C118.444 142.069 134.493 150.672 135.598 150.988C136.703 151.303 141.228 153.829 142.438 158.17C143.675 162.537 140.702 166.273 140.702 166.273L109.394 193.898L94.8977 180.586Z" fill="white"/>
<path d="M309.03 164.381H198.031V277.484H309.03V164.381Z" fill="#FEABB5"/>
<path d="M134.652 165.012C136.968 164.802 198.242 164.381 198.242 164.381V277.484C198.242 277.484 136.284 277.695 135.573 277.274C134.889 276.853 134.652 165.012 134.652 165.012Z" fill="#FE8D90"/>
<path d="M241.256 194.266L266.723 194.135L266.46 277.351C266.46 277.351 241.256 277.772 241.387 277.351C241.519 276.93 241.256 194.266 241.256 194.266Z" fill="white"/>
<path d="M252.727 193.135C252.727 193.135 262.224 169.904 271.327 173.745C280.404 177.586 260.619 192.819 252.727 193.135Z" fill="#FEF04F"/>
<path d="M234.127 173.798C225.024 177.639 244.834 192.872 252.727 193.188C252.727 193.188 243.23 169.957 234.127 173.798Z" fill="#FEF04F"/>
<path d="M67.7478 195.163C67.7478 195.163 60.2497 199.109 62.2492 207.738C64.2487 216.368 66.9585 225.313 70.4576 227.128C73.9568 228.944 77.1665 226.602 82.1652 221.156C87.164 215.71 94.057 208.054 95.5566 203.581C97.0563 199.109 97.3457 196.978 97.1615 196.662C96.9247 196.346 70.4313 191.769 67.7478 195.163Z" fill="#F9ECDC"/>
<path d="M101.529 156.803C101.529 156.803 105.159 148.779 113.289 150.857C121.418 152.936 129.811 155.725 131.547 159.434C133.284 163.144 131.1 166.564 126.023 171.931C120.945 177.298 113.815 184.691 109.632 186.322C105.449 187.953 103.449 188.295 103.134 188.085C102.844 187.875 98.3452 159.697 101.529 156.803Z" fill="#F9ECDC"/>
<path d="M158.303 186.189L159.697 277.588C159.697 277.588 177.693 279.929 177.903 277.798C178.114 275.667 176.903 186.189 176.903 186.189H158.303V186.189Z" fill="white"/>
<path d="M57.1445 262.17L92.0832 216.576L108.211 230.494C108.211 230.494 74.0877 278.929 74.0877 276.798C74.0877 274.667 57.1445 262.17 57.1445 262.17Z" fill="#FE8D90"/>
<path d="M118.997 180.349C119.129 180.928 92.0566 216.551 92.0566 216.551L108.184 230.468L134.704 194.267L176.904 136.886L161.329 123.916L118.997 180.349Z" fill="#FEABB5"/>
<path d="M108.132 195.897L103.107 202.501C101.896 204.079 99.7127 204.316 98.213 203.053L88.6365 194.792C87.1632 193.503 86.9264 191.162 88.1366 189.583L93.1617 182.979C94.3719 181.401 96.5556 181.164 98.0552 182.427L107.632 190.688C109.105 191.977 109.342 194.319 108.132 195.897Z" fill="#FDAA40"/>
<path d="M109.842 193.872L104.817 200.476C103.606 202.054 101.423 202.291 99.9232 201.028L89.9783 192.425C88.505 191.136 88.2682 188.794 89.4784 187.216L94.5035 180.612C95.7137 179.034 97.8973 178.797 99.397 180.06L109.342 188.637C110.815 189.926 111.052 192.267 109.842 193.872Z" fill="#FEF04F"/>
<path d="M80.8225 77.1096C79.6123 78.3198 77.6654 78.3198 76.4552 77.1096L72.2983 72.9527C71.0881 71.7425 71.0881 69.7956 72.2983 68.5854C73.5085 67.3752 75.4554 67.3752 76.6656 68.5854L80.8225 72.7423C82.0064 73.9525 82.0064 75.9257 80.8225 77.1096Z" fill="#FCC84E"/>
<path d="M131.888 41.3307C130.414 42.1726 128.52 41.6727 127.678 40.1994L124.758 35.1217C123.916 33.6484 124.416 31.7542 125.889 30.9123C127.363 30.0704 129.257 30.5703 130.099 32.0436L133.019 37.1212C133.861 38.5683 133.361 40.4625 131.888 41.3307Z" fill="#FCC84E"/>
<path d="M264.302 42.1452C263.276 40.8034 263.513 38.8565 264.855 37.8042L269.485 34.2261C270.827 33.2 272.774 33.4368 273.826 34.7786C274.852 36.1204 274.615 38.0673 273.274 39.1196L268.643 42.6977C267.302 43.7237 265.328 43.4869 264.302 42.1452Z" fill="#FCC84E"/>
<path d="M338.916 71.6901C337.889 70.3483 338.126 68.4015 339.468 67.3491L344.098 63.771C345.44 62.745 347.387 62.9818 348.44 64.3235C349.466 65.6653 349.229 67.6122 347.887 68.6645L343.257 72.2426C341.915 73.295 339.942 73.0319 338.916 71.6901Z" fill="#FCC84E"/>
<path d="M340.099 142.042C340.652 140.437 342.441 139.595 344.046 140.148L349.57 142.095C351.175 142.647 352.017 144.436 351.465 146.041C350.912 147.646 349.123 148.488 347.518 147.935L341.993 145.989C340.389 145.41 339.547 143.647 340.099 142.042Z" fill="#FCC84E"/>
<path d="M192.53 27.4655C191.057 28.3074 189.163 27.8075 188.321 26.3342L185.401 21.2565C184.559 19.7832 185.059 17.8889 186.532 17.047C188.005 16.2051 189.899 16.705 190.741 18.1783L193.662 23.256C194.504 24.7293 194.004 26.6236 192.53 27.4655Z" fill="#FCC84E"/>
<path d="M85.2421 119.6C85.2421 121.31 83.8477 122.678 82.1639 122.678H76.2969C74.5868 122.678 73.2188 121.283 73.2188 119.6C73.2188 117.89 74.6131 116.521 76.2969 116.521H82.1639C83.874 116.521 85.2421 117.916 85.2421 119.6Z" fill="#FCC84E"/>
<path d="M105.814 218.6V235.174H199.896L199.738 218.152L105.814 218.6Z" fill="#FCC84E"/>
<path d="M150.303 218.627L150.408 235.412L194.634 235.175V218.627H150.303Z" fill="#FDAA40"/>
<path d="M113.523 218.547L113.734 235.227L122.074 235.122L121.969 218.547" fill="#FEF04F"/>
<path d="M99.7383 235.254V251.855H193.82L193.688 234.807L99.7383 235.254Z" fill="#FCC84E"/>
<path d="M144.227 235.281L144.332 252.067L188.558 251.856V235.281H144.227Z" fill="#FDAA40"/>
<path d="M107.447 235.227L107.684 251.88L115.998 251.775L115.893 235.227" fill="#FEF04F"/>
<path d="M105.604 251.675V268.276H199.685L199.527 251.254L105.604 251.675Z" fill="#FCC84E"/>
<path d="M150.066 251.729L150.198 268.514L194.424 268.277V251.729H150.066Z" fill="#FDAA40"/>
<path d="M113.285 251.648L113.522 268.328L121.862 268.197L121.73 251.648" fill="#FEF04F"/>
<path d="M98.2637 268.564V285.165H192.345L192.188 268.143L98.2637 268.564Z" fill="#FCC84E"/>
<path d="M142.752 268.617L142.857 285.402L187.083 285.166V268.617H142.752Z" fill="#FDAA40"/>
<path d="M105.973 268.537L106.183 285.217L114.523 285.086L114.418 268.537" fill="#FEF04F"/>
<path d="M280.219 211.84V228.441H374.3L374.143 211.393L280.219 211.84Z" fill="#FCC84E"/>
<path d="M324.707 211.867L324.812 228.652L369.038 228.442V211.867H324.707Z" fill="#FDAA40"/>
<path d="M287.928 211.789L288.138 228.469L296.478 228.364L296.373 211.789" fill="#FEF04F"/>
<path d="M274.141 228.494V245.095H368.222L368.065 228.047L274.141 228.494Z" fill="#FCC84E"/>
<path d="M318.629 228.521L318.734 245.307L362.96 245.096V228.521H318.629Z" fill="#FDAA40"/>
<path d="M281.85 228.467L282.06 245.121L290.4 245.015L290.295 228.467" fill="#FEF04F"/>
<path d="M279.982 244.937V261.512H374.064L373.933 244.49L279.982 244.937Z" fill="#FCC84E"/>
<path d="M324.471 244.965L324.576 261.75L368.828 261.513V244.965H324.471Z" fill="#FDAA40"/>
<path d="M287.691 244.885L287.928 261.565L296.242 261.433L296.137 244.885" fill="#FEF04F"/>
<path d="M272.668 261.828V278.403H366.75L366.592 261.381L272.668 261.828Z" fill="#FCC84E"/>
<path d="M317.156 261.854L317.261 278.639L361.487 278.402V261.854H317.156Z" fill="#FDAA40"/>
<path d="M280.35 261.775L280.586 278.455L288.926 278.324L288.795 261.775" fill="#FEF04F"/>
<path d="M420.842 277.246H0V289.927H420.842V277.246Z" fill="#E6B78B"/>
</g>
<defs>
<clipPath id="clip0_2921_20061">
<rect width="421" height="315.684" fill="white"/>
</clipPath>
</defs>
</svg>
