<svg width="36" height="35" viewBox="0 0 36 35" fill="none" xmlns="http://www.w3.org/2000/svg">
<rect x="0.5" width="35" height="35" rx="17.5" fill="#1A1D1F"/>
<path d="M16.6406 11.5518C17.0946 10.2458 18.9416 10.2458 19.3956 11.5518L20.085 13.5352C20.2853 14.1114 20.823 14.502 21.4328 14.5144L23.5322 14.5572C24.9146 14.5854 25.4854 16.342 24.3836 17.1774L22.7102 18.446C22.2242 18.8145 22.0188 19.4466 22.1954 20.0304L22.8035 22.0403C23.2039 23.3637 21.7096 24.4494 20.5747 23.6596L18.8511 22.4602C18.3504 22.1118 17.6858 22.1118 17.1851 22.4602L15.4615 23.6596C14.3266 24.4494 12.8323 23.3637 13.2327 22.0403L13.8408 20.0304C14.0174 19.4466 13.812 18.8145 13.326 18.446L11.6526 17.1774C10.5508 16.342 11.1216 14.5854 12.504 14.5572L14.6034 14.5144C15.2132 14.502 15.7509 14.1114 15.9512 13.5352L16.6406 11.5518Z" fill="#FFD600"/>
<g filter="url(#filter0_f_105_10981)">
<path d="M17.0427 10.1765C17.5572 8.69637 19.6505 8.69636 20.165 10.1765L20.9463 12.4244C21.1733 13.0774 21.7827 13.5201 22.4738 13.5342L24.8532 13.5827C26.4199 13.6146 27.0667 15.6055 25.818 16.5522L23.9216 17.99C23.3707 18.4076 23.138 19.124 23.3381 19.7856L24.0273 22.0635C24.4811 23.5634 22.7875 24.7938 21.5013 23.8987L19.5478 22.5394C18.9804 22.1446 18.2272 22.1446 17.6598 22.5394L15.7064 23.8987C14.4201 24.7938 12.7266 23.5634 13.1803 22.0635L13.8695 19.7856C14.0697 19.124 13.8369 18.4076 13.286 17.99L11.3896 16.5522C10.1409 15.6055 10.7878 13.6146 12.3545 13.5827L14.7338 13.5342C15.425 13.5201 16.0343 13.0774 16.2613 12.4244L17.0427 10.1765Z" fill="#FFD600"/>
</g>
<defs>
<filter id="filter0_f_105_10981" x="0.666504" y="-1" width="35.8335" height="35.834" filterUnits="userSpaceOnUse" color-interpolation-filters="sRGB">
<feFlood flood-opacity="0" result="BackgroundImageFix"/>
<feBlend mode="normal" in="SourceGraphic" in2="BackgroundImageFix" result="shape"/>
<feGaussianBlur stdDeviation="4" result="effect1_foregroundBlur_105_10981"/>
</filter>
</defs>
</svg>
