<svg width="812" height="758" viewBox="0 0 812 758" fill="none" xmlns="http://www.w3.org/2000/svg">
<mask id="mask0_20_7376" style="mask-type:alpha" maskUnits="userSpaceOnUse" x="-650" y="0" width="1462" height="1047">
<path d="M-453.65 666.918C-469.921 652.781 -485.326 638.729 -499.777 624.827C-579.136 548.49 -627.64 479.403 -643.942 419.485C-660.621 358.183 -642.818 307.967 -591.025 270.232C-433.78 155.668 -319.687 99.1284 -244.191 61.7141C-210.21 44.8746 -183.371 31.5737 -164.844 18.8774L-164.233 19.9544L-164.844 18.8774C-134.022 -2.24591 -64.5293 -5.46919 16.5147 10.467C103.731 27.6164 185.044 62.768 239.607 106.908C314.864 167.79 411.133 213.765 478.641 241.613C557.278 274.051 643.614 300.932 709.589 313.52C752.18 321.645 783.133 347.556 799.1 388.453C826.747 459.267 805.997 565.737 744.946 666.315C716.009 713.988 686.087 763.284 654.686 808.667C619.97 858.841 587.117 898.671 554.25 930.432C515.004 968.36 474.716 996.096 431.084 1015.22C382.367 1036.58 330.584 1046.83 272.776 1046.56C174.042 1046.09 -34.9183 956.254 -235.376 828.095C-317.375 775.67 -391.769 720.687 -453.65 666.918ZM764.422 342.008C749.376 328.935 730.816 320.145 709.194 316.02C643.085 303.407 556.594 276.48 477.83 243.989C410.185 216.085 313.708 170.006 238.238 108.952C183.95 65.0351 102.987 30.0484 16.1077 12.966C-64.3964 -2.86353 -133.265 0.226776 -163.622 21.0313C-182.28 33.8178 -209.182 47.1494 -243.241 64.0285C-318.67 101.409 -432.659 157.898 -589.748 272.348C-640.595 309.392 -658.083 358.652 -641.73 418.759C-625.554 478.212 -577.282 546.901 -498.256 622.918C-428.954 689.581 -337.649 759.772 -234.214 825.902C-34.0713 953.859 174.416 1043.55 272.787 1044.02C330.293 1044.29 381.792 1034.1 430.228 1012.87C473.61 993.847 513.679 966.259 552.725 928.526C625.977 857.737 685.481 759.707 743.025 664.906C803.647 565.034 824.321 459.488 796.978 389.453C789.429 370.119 778.454 354.2 764.422 342.008Z" fill="url(#paint0_linear_20_7376)"/>
</mask>
<g mask="url(#mask0_20_7376)">
<path d="M-453.65 666.918C-469.921 652.781 -485.326 638.729 -499.777 624.827C-579.136 548.49 -627.64 479.403 -643.942 419.485C-660.621 358.183 -642.818 307.967 -591.025 270.232C-433.78 155.668 -319.687 99.1284 -244.191 61.7141C-210.21 44.8746 -183.371 31.5737 -164.844 18.8774L-164.233 19.9544L-164.844 18.8774C-134.022 -2.24591 -64.5293 -5.46919 16.5147 10.467C103.731 27.6164 185.044 62.768 239.607 106.908C314.864 167.79 411.133 213.765 478.641 241.613C557.278 274.051 643.614 300.932 709.589 313.52C752.18 321.645 783.133 347.556 799.1 388.453C826.747 459.267 805.997 565.737 744.946 666.315C716.009 713.988 686.087 763.284 654.686 808.667C619.97 858.841 587.117 898.671 554.25 930.432C515.004 968.36 474.716 996.096 431.084 1015.22C382.367 1036.58 330.584 1046.83 272.776 1046.56C174.042 1046.09 -34.9183 956.254 -235.376 828.095C-317.375 775.67 -391.769 720.687 -453.65 666.918ZM764.422 342.008C749.376 328.935 730.816 320.145 709.194 316.02C643.085 303.407 556.594 276.48 477.83 243.989C410.185 216.085 313.708 170.006 238.238 108.952C183.95 65.0351 102.987 30.0484 16.1077 12.966C-64.3964 -2.86353 -133.265 0.226776 -163.622 21.0313C-182.28 33.8178 -209.182 47.1494 -243.241 64.0285C-318.67 101.409 -432.659 157.898 -589.748 272.348C-640.595 309.392 -658.083 358.652 -641.73 418.759C-625.554 478.212 -577.282 546.901 -498.256 622.918C-428.954 689.581 -337.649 759.772 -234.214 825.902C-34.0713 953.859 174.416 1043.55 272.787 1044.02C330.293 1044.29 381.792 1034.1 430.228 1012.87C473.61 993.847 513.679 966.259 552.725 928.526C625.977 857.737 685.481 759.707 743.025 664.906C803.647 565.034 824.321 459.488 796.978 389.453C789.429 370.119 778.454 354.2 764.422 342.008Z" fill="url(#paint1_linear_20_7376)"/>
</g>
<mask id="mask1_20_7376" style="mask-type:alpha" maskUnits="userSpaceOnUse" x="-596" y="26" width="1349" height="966">
<path d="M-419.462 642.158C-432.329 630.979 -444.587 619.86 -456.188 608.842C-529.354 539.347 -574.184 476.441 -589.43 421.869C-604.845 366.698 -589.29 321.422 -543.198 287.302C-404.671 183.114 -297.859 126.909 -227.18 89.718C-194 72.2587 -167.793 58.4689 -149.133 45.5252C-118.963 24.6239 -53.5223 20.2314 21.6537 34.0608C102.149 48.8694 178.206 81.012 230.324 122.246C300.004 178.042 388.319 220.866 450.137 246.966C522.758 277.628 599.536 302.617 660.784 315.523C699.431 323.676 727.476 347.969 741.888 385.775C766.905 451.404 747.783 549.345 691.985 641.377L691.986 641.376C639.418 728.263 585.059 818.11 516.359 884.33C480.173 919.211 443.022 944.769 402.783 962.469C357.895 982.213 310.217 991.803 257.028 991.788C165.713 992.09 -27.3352 910.722 -212.426 793.916C-290.524 744.631 -361.206 692.777 -419.462 642.158ZM709.186 341.509C695.784 329.863 679.39 321.875 660.374 317.863C599.006 304.931 522.094 279.901 449.358 249.19C387.418 223.038 298.917 180.12 229.051 124.175C177.199 83.1517 101.473 51.1607 21.2958 36.4104C-53.3762 22.6733 -118.237 26.9373 -147.975 47.5396C-166.741 60.5569 -192.999 74.3742 -226.242 91.8665C-296.862 129.027 -403.582 185.183 -541.979 289.273C-587.192 322.743 -602.457 367.117 -587.356 421.169C-572.231 475.305 -527.622 537.841 -454.768 607.039C-390.75 667.849 -306.574 731.754 -211.347 791.849C-26.5532 908.467 166.048 989.705 257.024 989.404C309.936 989.419 357.349 979.885 401.976 960.256C441.983 942.659 478.93 917.238 514.927 882.538C583.411 816.525 637.688 726.814 690.178 640.056V640.055C745.578 548.679 764.625 451.596 739.885 386.696C732.851 368.244 722.494 353.073 709.186 341.509Z" fill="url(#paint2_linear_20_7376)"/>
</mask>
<g mask="url(#mask1_20_7376)">
<path d="M-419.462 642.158C-432.329 630.979 -444.587 619.86 -456.188 608.842C-529.354 539.347 -574.184 476.441 -589.43 421.869C-604.845 366.698 -589.29 321.422 -543.198 287.302C-404.671 183.114 -297.859 126.909 -227.18 89.718C-194 72.2587 -167.793 58.4689 -149.133 45.5252C-118.963 24.6239 -53.5223 20.2314 21.6537 34.0608C102.149 48.8694 178.206 81.012 230.324 122.246C300.004 178.042 388.319 220.866 450.137 246.966C522.758 277.628 599.536 302.617 660.784 315.523C699.431 323.676 727.476 347.969 741.888 385.775C766.905 451.404 747.783 549.345 691.985 641.377L691.986 641.376C639.418 728.263 585.059 818.11 516.359 884.33C480.173 919.211 443.022 944.769 402.783 962.469C357.895 982.213 310.217 991.803 257.028 991.788C165.713 992.09 -27.3352 910.722 -212.426 793.916C-290.524 744.631 -361.206 692.777 -419.462 642.158ZM709.186 341.509C695.784 329.863 679.39 321.875 660.374 317.863C599.006 304.931 522.094 279.901 449.358 249.19C387.418 223.038 298.917 180.12 229.051 124.175C177.199 83.1517 101.473 51.1607 21.2958 36.4104C-53.3762 22.6733 -118.237 26.9373 -147.975 47.5396C-166.741 60.5569 -192.999 74.3742 -226.242 91.8665C-296.862 129.027 -403.582 185.183 -541.979 289.273C-587.192 322.743 -602.457 367.117 -587.356 421.169C-572.231 475.305 -527.622 537.841 -454.768 607.039C-390.75 667.849 -306.574 731.754 -211.347 791.849C-26.5532 908.467 166.048 989.705 257.024 989.404C309.936 989.419 357.349 979.885 401.976 960.256C441.983 942.659 478.93 917.238 514.927 882.538C583.411 816.525 637.688 726.814 690.178 640.056V640.055C745.578 548.679 764.625 451.596 739.885 386.696C732.851 368.244 722.494 353.073 709.186 341.509Z" fill="url(#paint3_linear_20_7376)"/>
</g>
<mask id="mask2_20_7376" style="mask-type:alpha" maskUnits="userSpaceOnUse" x="-541" y="51" width="1236" height="887">
<path d="M-385.217 617.558C-394.748 609.277 -403.889 601.045 -412.637 592.862C-479.613 530.208 -520.767 473.48 -534.956 424.256C-549.093 375.212 -535.775 334.877 -495.372 304.371C-374.67 209.894 -278.811 156.217 -208.817 117.024C-177.053 99.2373 -151.965 85.1892 -133.42 72.1697C-103.443 51.1717 -43.551 45.745 26.792 57.6523C100.582 70.1432 171.382 99.2769 221.04 137.583C337.222 229.494 518.485 295.549 611.978 317.525C646.689 325.705 671.831 348.385 684.685 383.117C707.055 443.563 689.557 532.967 639.02 616.441C593.716 691.614 542.365 776.82 478.464 838.23C445.34 870.061 411.326 893.445 374.479 909.714C333.42 927.844 289.849 936.775 241.276 937.018C199.177 937.553 134.736 920.306 54.926 887.143C-21.741 855.284 -108.549 810.039 -189.509 759.741C-263.688 713.656 -330.647 664.972 -385.217 617.558ZM653.938 340.949C642.191 330.742 627.966 323.572 611.552 319.706C517.893 297.689 336.29 231.504 219.864 139.4C170.463 101.293 99.974 72.2983 26.482 59.8569C-43.387 48.0287 -102.756 53.3356 -132.33 74.0501C-150.956 87.1267 -176.084 101.198 -207.896 119.011C-277.833 158.173 -373.615 211.807 -494.21 306.197C-533.804 336.092 -546.857 375.584 -533.022 423.582C-518.95 472.402 -478.004 528.783 -411.322 591.163C-352.581 646.109 -275.535 703.735 -188.511 757.798C-107.639 808.042 -20.93 853.235 55.643 885.055C135.219 918.121 199.404 935.318 241.259 934.786C289.578 934.543 332.904 925.665 373.721 907.643C410.353 891.469 444.177 868.214 477.127 836.549C540.823 775.337 592.093 690.264 637.328 615.206L637.329 615.205C687.499 532.337 704.923 443.728 682.803 383.957C676.288 366.349 666.541 351.9 653.938 340.949Z" fill="url(#paint4_linear_20_7376)"/>
</mask>
<g mask="url(#mask2_20_7376)">
<path d="M-385.217 617.558C-394.748 609.277 -403.889 601.045 -412.637 592.862C-479.613 530.208 -520.767 473.48 -534.956 424.256C-549.093 375.212 -535.775 334.877 -495.372 304.371C-374.67 209.894 -278.811 156.217 -208.817 117.024C-177.053 99.2373 -151.965 85.1892 -133.42 72.1697C-103.443 51.1717 -43.551 45.745 26.792 57.6523C100.582 70.1432 171.382 99.2769 221.04 137.583C337.222 229.494 518.485 295.549 611.978 317.525C646.689 325.705 671.831 348.385 684.685 383.117C707.055 443.563 689.557 532.967 639.02 616.441C593.716 691.614 542.365 776.82 478.464 838.23C445.34 870.061 411.326 893.445 374.479 909.714C333.42 927.844 289.849 936.775 241.276 937.018C199.177 937.553 134.736 920.306 54.926 887.143C-21.741 855.284 -108.549 810.039 -189.509 759.741C-263.688 713.656 -330.647 664.972 -385.217 617.558ZM653.938 340.949C642.191 330.742 627.966 323.572 611.552 319.706C517.893 297.689 336.29 231.504 219.864 139.4C170.463 101.293 99.974 72.2983 26.482 59.8569C-43.387 48.0287 -102.756 53.3356 -132.33 74.0501C-150.956 87.1267 -176.084 101.198 -207.896 119.011C-277.833 158.173 -373.615 211.807 -494.21 306.197C-533.804 336.092 -546.857 375.584 -533.022 423.582C-518.95 472.402 -478.004 528.783 -411.322 591.163C-352.581 646.109 -275.535 703.735 -188.511 757.798C-107.639 808.042 -20.93 853.235 55.643 885.055C135.219 918.121 199.404 935.318 241.259 934.786C289.578 934.543 332.904 925.665 373.721 907.643C410.353 891.469 444.177 868.214 477.127 836.549C540.823 775.337 592.093 690.264 637.328 615.206L637.329 615.205C687.499 532.337 704.923 443.728 682.803 383.957C676.288 366.349 666.541 351.9 653.938 340.949Z" fill="url(#paint5_linear_20_7376)"/>
</g>
<mask id="mask3_20_7376" style="mask-type:alpha" maskUnits="userSpaceOnUse" x="-486" y="76" width="1122" height="807">
<path d="M-350.904 593.16C-357.176 587.711 -363.252 582.288 -369.136 576.884C-429.924 521.071 -467.402 470.524 -480.532 426.647C-493.375 383.726 -482.278 348.328 -447.547 321.439C-343.58 235.757 -253.833 182.153 -188.303 143.015C-160.066 126.15 -135.68 111.584 -117.707 98.8141C-88.3618 78.0271 -32.4228 71.4586 31.9302 81.2438C99.0363 91.4467 164.58 117.571 211.756 152.919C258.043 189.006 320.755 225.225 393.126 257.671C451.216 283.714 513.195 306.261 563.173 319.529C593.963 327.728 616.209 348.807 627.5 380.486C647.2 435.749 631.32 516.606 586.057 591.501C538.783 670.315 495.204 739.814 440.571 792.126C410.51 820.911 379.633 842.117 346.177 856.956C308.948 873.469 269.482 881.742 225.527 882.246C186.907 883.165 128.081 868.13 55.4193 838.763C-14.0938 810.668 -92.9518 770.468 -166.628 725.57C-236.884 682.756 -300.093 637.31 -350.904 593.16ZM598.676 340.305C588.6 331.549 576.544 325.227 562.728 321.546C512.663 308.256 450.585 285.674 392.412 259.594C319.909 227.089 257.066 190.791 210.676 154.623C163.747 119.462 98.4973 93.4611 31.6702 83.3011C-32.2488 73.5818 -87.7078 80.0339 -116.684 100.559C-134.716 113.371 -159.132 127.954 -187.402 144.839C-252.881 183.948 -342.558 237.509 -446.437 323.118C-480.431 349.438 -491.291 384.046 -478.738 425.998C-465.72 469.501 -428.438 519.729 -367.926 575.289C-314.455 624.376 -244.537 675.718 -165.714 723.753C-92.1198 768.602 -13.3557 808.754 56.0703 836.813C128.511 866.092 187.098 881.084 225.495 880.168C269.221 879.667 308.46 871.445 345.468 855.031C378.726 840.278 409.428 819.19 439.329 790.56C493.782 738.42 537.282 669.044 584.481 590.355L584.483 590.353C629.41 516.012 645.219 435.886 625.74 381.243C619.747 364.431 610.6 350.666 598.676 340.305Z" fill="url(#paint6_linear_20_7376)"/>
</mask>
<g mask="url(#mask3_20_7376)">
<path d="M-350.904 593.16C-357.176 587.711 -363.252 582.288 -369.136 576.884C-429.924 521.071 -467.402 470.524 -480.532 426.647C-493.375 383.726 -482.278 348.328 -447.547 321.439C-343.58 235.757 -253.833 182.153 -188.303 143.015C-160.066 126.15 -135.68 111.584 -117.707 98.8141C-88.3618 78.0271 -32.4228 71.4586 31.9302 81.2438C99.0363 91.4467 164.58 117.571 211.756 152.919C258.043 189.006 320.755 225.225 393.126 257.671C451.216 283.714 513.195 306.261 563.173 319.529C593.963 327.728 616.209 348.807 627.5 380.486C647.2 435.749 631.32 516.606 586.057 591.501C538.783 670.315 495.204 739.814 440.571 792.126C410.51 820.911 379.633 842.117 346.177 856.956C308.948 873.469 269.482 881.742 225.527 882.246C186.907 883.165 128.081 868.13 55.4193 838.763C-14.0938 810.668 -92.9518 770.468 -166.628 725.57C-236.884 682.756 -300.093 637.31 -350.904 593.16ZM598.676 340.305C588.6 331.549 576.544 325.227 562.728 321.546C512.663 308.256 450.585 285.674 392.412 259.594C319.909 227.089 257.066 190.791 210.676 154.623C163.747 119.462 98.4973 93.4611 31.6702 83.3011C-32.2488 73.5818 -87.7078 80.0339 -116.684 100.559C-134.716 113.371 -159.132 127.954 -187.402 144.839C-252.881 183.948 -342.558 237.509 -446.437 323.118C-480.431 349.438 -491.291 384.046 -478.738 425.998C-465.72 469.501 -428.438 519.729 -367.926 575.289C-314.455 624.376 -244.537 675.718 -165.714 723.753C-92.1198 768.602 -13.3557 808.754 56.0703 836.813C128.511 866.092 187.098 881.084 225.495 880.168C269.221 879.667 308.46 871.445 345.468 855.031C378.726 840.278 409.428 819.19 439.329 790.56C493.782 738.42 537.282 669.044 584.481 590.355L584.483 590.353C629.41 516.012 645.219 435.886 625.74 381.243C619.747 364.431 610.6 350.666 598.676 340.305Z" fill="url(#paint7_linear_20_7376)"/>
</g>
<mask id="mask4_20_7376" style="mask-type:alpha" maskUnits="userSpaceOnUse" x="-432" y="101" width="1010" height="727">
<path d="M-316.508 569.037C-319.629 566.326 -322.693 563.622 -325.701 560.923C-380.302 511.95 -414.107 467.585 -426.177 429.056C-437.708 392.247 -428.808 361.783 -399.724 338.511C-311.232 260.348 -226.351 206.171 -164.373 166.612C-139.796 150.925 -118.571 137.378 -101.995 125.459C-72.8319 104.565 -22.1459 97.0493 37.0671 104.837C97.5211 112.788 157.809 135.903 202.472 168.257C289.289 234.749 425.006 294.318 514.371 321.534C541.26 329.758 560.613 349.25 570.339 377.904C587.339 427.983 573.068 500.275 533.095 566.566L533.097 566.561C492.944 633.896 452.755 698.29 402.678 746.025C375.679 771.761 347.94 790.791 317.874 804.201C284.475 819.098 249.116 826.711 209.777 827.475C174.625 828.782 121.406 815.96 55.886 790.395C-6.48495 766.058 -77.4009 730.906 -143.798 691.414C-210.113 651.971 -269.552 609.837 -316.508 569.037ZM543.395 339.544C535.011 332.259 525.128 326.82 513.902 323.387C424.399 296.13 288.456 236.456 201.49 169.847C157.064 137.667 97.0521 114.662 36.8591 106.745C-21.9519 99.0109 -72.214 106.419 -101.038 127.07C-117.652 139.014 -138.895 152.574 -163.494 168.275C-225.423 207.803 -310.239 261.938 -398.661 340.038C-427.085 362.783 -435.775 392.513 -424.523 428.431C-412.56 466.616 -378.94 510.691 -324.596 559.434C-276.391 602.646 -213.593 647.716 -142.966 689.723C-76.6459 729.169 -5.81793 764.278 56.4711 788.583C121.786 814.068 174.783 826.852 209.731 825.554C248.865 824.794 284.019 817.227 317.215 802.421C347.099 789.092 374.679 770.169 401.53 744.573C451.438 697 491.549 632.726 531.632 565.509L531.634 565.504C571.303 499.717 585.505 428.09 568.697 378.576C563.237 362.485 554.673 349.344 543.395 339.544Z" fill="url(#paint8_linear_20_7376)"/>
</mask>
<g mask="url(#mask4_20_7376)">
<path d="M-316.508 569.037C-319.629 566.326 -322.693 563.622 -325.701 560.923C-380.302 511.95 -414.107 467.585 -426.177 429.056C-437.708 392.247 -428.808 361.783 -399.724 338.511C-311.232 260.348 -226.351 206.171 -164.373 166.612C-139.796 150.925 -118.571 137.378 -101.995 125.459C-72.8319 104.565 -22.1459 97.0493 37.0671 104.837C97.5211 112.788 157.809 135.903 202.472 168.257C289.289 234.749 425.006 294.318 514.371 321.534C541.26 329.758 560.613 349.25 570.339 377.904C587.339 427.983 573.068 500.275 533.095 566.566L533.097 566.561C492.944 633.896 452.755 698.29 402.678 746.025C375.679 771.761 347.94 790.791 317.874 804.201C284.475 819.098 249.116 826.711 209.777 827.475C174.625 828.782 121.406 815.96 55.886 790.395C-6.48495 766.058 -77.4009 730.906 -143.798 691.414C-210.113 651.971 -269.552 609.837 -316.508 569.037ZM543.395 339.544C535.011 332.259 525.128 326.82 513.902 323.387C424.399 296.13 288.456 236.456 201.49 169.847C157.064 137.667 97.0521 114.662 36.8591 106.745C-21.9519 99.0109 -72.214 106.419 -101.038 127.07C-117.652 139.014 -138.895 152.574 -163.494 168.275C-225.423 207.803 -310.239 261.938 -398.661 340.038C-427.085 362.783 -435.775 392.513 -424.523 428.431C-412.56 466.616 -378.94 510.691 -324.596 559.434C-276.391 602.646 -213.593 647.716 -142.966 689.723C-76.6459 729.169 -5.81793 764.278 56.4711 788.583C121.786 814.068 174.783 826.852 209.731 825.554C248.865 824.794 284.019 817.227 317.215 802.421C347.099 789.092 374.679 770.169 401.53 744.573C451.438 697 491.549 632.726 531.632 565.509L531.634 565.504C571.303 499.717 585.505 428.09 568.697 378.576C563.237 362.485 554.673 349.344 543.395 339.544Z" fill="url(#paint9_linear_20_7376)"/>
</g>
<mask id="mask5_20_7376" style="mask-type:alpha" maskUnits="userSpaceOnUse" x="-377" y="126" width="896" height="647">
<path d="M-282.009 545.287C-282.125 545.187 -282.238 545.089 -282.354 544.987C-330.773 502.858 -360.907 464.674 -371.921 431.496C-382.117 400.781 -375.382 375.24 -351.903 355.584C-277.648 283.209 -195.252 227.028 -135.09 186.008C-116.251 173.164 -99.98 162.07 -86.282 152.104C-57.71 131.396 -10.879 122.768 42.202 128.43C96.046 134.173 151.078 154.28 193.187 183.595C231.001 211.918 279.083 240.438 336.118 268.382C379.023 289.401 426.206 309.507 465.571 323.543C488.583 331.793 505.055 349.72 513.207 375.391C527.464 420.282 514.79 483.981 480.131 541.629C446.728 598.064 410.303 656.779 364.784 699.924C340.849 722.611 316.247 739.464 289.571 751.446C260.003 764.727 228.751 771.68 194.027 772.705C131.213 776.063 4.59396 729.677 -121.032 657.278C-183.385 621.343 -239.04 582.624 -282.009 545.287ZM488.086 338.61C481.424 332.821 473.721 328.325 465.074 325.223C425.659 311.17 378.418 291.04 335.463 269.996C278.34 242.01 230.174 213.437 192.303 185.072C150.423 155.916 95.648 135.906 42.047 130.19C-10.674 124.566 -57.1251 133.091 -85.3951 153.58C-99.1121 163.56 -115.392 174.659 -134.242 187.512C-194.355 228.499 -276.682 284.632 -350.882 356.95C-373.781 376.123 -380.336 400.986 -370.409 430.889C-359.499 463.756 -329.537 501.677 -281.356 543.601C-281.243 543.698 -281.125 543.802 -281.012 543.899C-238.119 581.171 -182.556 619.824 -120.285 655.711C5.108 727.976 131.396 774.282 193.966 770.935C228.509 769.917 259.576 763.005 288.961 749.806C315.473 737.899 339.931 721.143 363.732 698.583C409.091 655.589 445.441 596.991 478.784 540.658L478.787 540.652C513.174 483.455 525.781 420.352 511.686 375.973C506.773 360.496 498.768 347.892 488.086 338.61Z" fill="url(#paint10_linear_20_7376)"/>
</mask>
<g mask="url(#mask5_20_7376)">
<path d="M-282.009 545.287C-282.125 545.187 -282.238 545.089 -282.354 544.987C-330.773 502.858 -360.907 464.674 -371.921 431.496C-382.117 400.781 -375.382 375.24 -351.903 355.584C-277.648 283.209 -195.252 227.028 -135.09 186.008C-116.251 173.164 -99.98 162.07 -86.282 152.104C-57.71 131.396 -10.879 122.768 42.202 128.43C96.046 134.173 151.078 154.28 193.187 183.595C231.001 211.918 279.083 240.438 336.118 268.382C379.023 289.401 426.206 309.507 465.571 323.543C488.583 331.793 505.055 349.72 513.207 375.391C527.464 420.282 514.79 483.981 480.131 541.629C446.728 598.064 410.303 656.779 364.784 699.924C340.849 722.611 316.247 739.464 289.571 751.446C260.003 764.727 228.751 771.68 194.027 772.705C131.213 776.063 4.59396 729.677 -121.032 657.278C-183.385 621.343 -239.04 582.624 -282.009 545.287ZM488.086 338.61C481.424 332.821 473.721 328.325 465.074 325.223C425.659 311.17 378.418 291.04 335.463 269.996C278.34 242.01 230.174 213.437 192.303 185.072C150.423 155.916 95.648 135.906 42.047 130.19C-10.674 124.566 -57.1251 133.091 -85.3951 153.58C-99.1121 163.56 -115.392 174.659 -134.242 187.512C-194.355 228.499 -276.682 284.632 -350.882 356.95C-373.781 376.123 -380.336 400.986 -370.409 430.889C-359.499 463.756 -329.537 501.677 -281.356 543.601C-281.243 543.698 -281.125 543.802 -281.012 543.899C-238.119 581.171 -182.556 619.824 -120.285 655.711C5.108 727.976 131.396 774.282 193.966 770.935C228.509 769.917 259.576 763.005 288.961 749.806C315.473 737.899 339.931 721.143 363.732 698.583C409.091 655.589 445.441 596.991 478.784 540.658L478.787 540.652C513.174 483.455 525.781 420.352 511.686 375.973C506.773 360.496 498.768 347.892 488.086 338.61Z" fill="url(#paint11_linear_20_7376)"/>
</g>
<mask id="mask6_20_7376" style="mask-type:alpha" maskUnits="userSpaceOnUse" x="-323" y="151" width="784" height="568">
<path d="M-247.568 521.92C-284.913 489.472 -308.523 459.929 -317.81 434.004C-326.639 409.36 -322.033 388.733 -304.117 372.691C-243.355 303.771 -159.05 242.823 -97.493 198.321C-87.834 191.339 -78.709 184.741 -70.566 178.748C-42.131 157.898 -0.257965 148.407 47.34 152.023C95.333 155.669 143.833 172.329 183.905 198.932C210.771 218.484 287.19 269.924 416.778 325.553C435.95 333.839 449.555 350.242 456.12 372.996C467.572 412.681 456.479 467.74 427.173 516.685C400.125 562.832 367.839 615.294 326.891 653.823C283.618 694.541 235.007 715.511 178.28 717.935C150.023 720.021 107.978 711.643 56.71 693.706C7.87903 676.621 -45.74 652.236 -98.348 623.186C-152.674 593.187 -201.354 560.658 -239.124 529.112C-242.012 526.701 -244.828 524.302 -247.568 521.92ZM432.738 337.41C427.846 333.159 422.33 329.689 416.24 327.057C395.51 318.158 353.747 299.586 306.987 275.194C257.901 249.592 216.225 224.392 183.117 200.296C143.266 173.84 95.001 157.262 47.237 153.633C-0.0379944 150.042 -41.585 159.438 -69.75 180.09C-77.897 186.087 -87.024 192.684 -96.686 199.67C-158.197 244.137 -242.44 305.04 -303.092 373.849L-303.156 373.914C-320.545 389.464 -325.015 409.483 -316.443 433.413C-306.713 460.572 -279.671 493.218 -238.234 527.826C-200.535 559.313 -151.935 591.789 -97.688 621.742C-45.147 650.755 8.397 675.106 57.156 692.166C108.249 710.042 150.107 718.395 178.202 716.32C234.606 713.911 282.923 693.067 325.935 652.596C366.732 614.209 398.946 561.861 425.938 515.808L425.942 515.801C455.014 467.25 466.041 412.717 454.719 373.483C450.379 358.447 442.905 346.244 432.738 337.41Z" fill="url(#paint12_linear_20_7376)"/>
</mask>
<g mask="url(#mask6_20_7376)">
<path d="M-247.568 521.92C-284.913 489.472 -308.523 459.929 -317.81 434.004C-326.639 409.36 -322.033 388.733 -304.117 372.691C-243.355 303.771 -159.05 242.823 -97.493 198.321C-87.834 191.339 -78.709 184.741 -70.566 178.748C-42.131 157.898 -0.257965 148.407 47.34 152.023C95.333 155.669 143.833 172.329 183.905 198.932C210.771 218.484 287.19 269.924 416.778 325.553C435.95 333.839 449.555 350.242 456.12 372.996C467.572 412.681 456.479 467.74 427.173 516.685C400.125 562.832 367.839 615.294 326.891 653.823C283.618 694.541 235.007 715.511 178.28 717.935C150.023 720.021 107.978 711.643 56.71 693.706C7.87903 676.621 -45.74 652.236 -98.348 623.186C-152.674 593.187 -201.354 560.658 -239.124 529.112C-242.012 526.701 -244.828 524.302 -247.568 521.92ZM432.738 337.41C427.846 333.159 422.33 329.689 416.24 327.057C395.51 318.158 353.747 299.586 306.987 275.194C257.901 249.592 216.225 224.392 183.117 200.296C143.266 173.84 95.001 157.262 47.237 153.633C-0.0379944 150.042 -41.585 159.438 -69.75 180.09C-77.897 186.087 -87.024 192.684 -96.686 199.67C-158.197 244.137 -242.44 305.04 -303.092 373.849L-303.156 373.914C-320.545 389.464 -325.015 409.483 -316.443 433.413C-306.713 460.572 -279.671 493.218 -238.234 527.826C-200.535 559.313 -151.935 591.789 -97.688 621.742C-45.147 650.755 8.397 675.106 57.156 692.166C108.249 710.042 150.107 718.395 178.202 716.32C234.606 713.911 282.923 693.067 325.935 652.596C366.732 614.209 398.946 561.861 425.938 515.808L425.942 515.801C455.014 467.25 466.041 412.717 454.719 373.483C450.379 358.447 442.905 346.244 432.738 337.41Z" fill="url(#paint13_linear_20_7376)"/>
</g>
<mask id="mask7_20_7376" style="mask-type:alpha" maskUnits="userSpaceOnUse" x="-269" y="175" width="672" height="489">
<path d="M-212.295 499.947C-238.811 476.908 -256.519 455.254 -263.929 436.668C-271.368 418.009 -268.808 402.24 -256.321 389.796C-209.885 320.846 -101.249 239.944 -54.8524 205.392C3.18954 162.323 97.5516 165.976 174.619 214.273C233.726 255.665 309.351 296.162 354.534 320.358C359.332 322.928 363.833 325.338 367.987 327.573C383.377 335.913 394.13 350.869 399.087 370.818C407.645 405.255 398.111 451.595 374.209 491.749C350.387 532.944 323.574 575.508 288.997 607.722C252.097 642.1 210.73 660.235 162.533 663.163C113.721 668.044 20.1745 639.008 -75.7655 589.187C-121.895 565.232 -163.488 539.015 -196.045 513.37C-201.778 508.853 -207.201 504.372 -212.295 499.947ZM377.337 335.77C374.29 333.123 370.974 330.821 367.401 328.884C363.249 326.65 358.75 324.241 353.952 321.672C308.743 297.461 233.076 256.941 173.932 215.522C97.3156 167.509 3.53055 163.833 -54.1075 206.602C-100.461 241.121 -209.014 321.96 -255.292 390.722L-255.332 390.78L-255.381 390.83C-267.439 402.814 -269.906 418.038 -262.712 436.08C-253.974 457.995 -230.652 484.313 -195.271 512.181C-162.778 537.775 -121.257 563.947 -75.1975 587.865C20.5435 637.582 113.82 666.566 162.436 661.705C269.473 655.202 325.191 573.79 373.089 490.96L373.094 490.951C396.797 451.134 406.266 405.248 397.805 371.2C394.104 356.31 387.113 344.265 377.337 335.77Z" fill="url(#paint14_linear_20_7376)"/>
</mask>
<g mask="url(#mask7_20_7376)">
<path d="M-212.295 499.947C-238.811 476.908 -256.519 455.254 -263.929 436.668C-271.368 418.009 -268.808 402.24 -256.321 389.796C-209.885 320.846 -101.249 239.944 -54.8524 205.392C3.18954 162.323 97.5516 165.976 174.619 214.273C233.726 255.665 309.351 296.162 354.534 320.358C359.332 322.928 363.833 325.338 367.987 327.573C383.377 335.913 394.13 350.869 399.087 370.818C407.645 405.255 398.111 451.595 374.209 491.749C350.387 532.944 323.574 575.508 288.997 607.722C252.097 642.1 210.73 660.235 162.533 663.163C113.721 668.044 20.1745 639.008 -75.7655 589.187C-121.895 565.232 -163.488 539.015 -196.045 513.37C-201.778 508.853 -207.201 504.372 -212.295 499.947ZM377.337 335.77C374.29 333.123 370.974 330.821 367.401 328.884C363.249 326.65 358.75 324.241 353.952 321.672C308.743 297.461 233.076 256.941 173.932 215.522C97.3156 167.509 3.53055 163.833 -54.1075 206.602C-100.461 241.121 -209.014 321.96 -255.292 390.722L-255.332 390.78L-255.381 390.83C-267.439 402.814 -269.906 418.038 -262.712 436.08C-253.974 457.995 -230.652 484.313 -195.271 512.181C-162.778 537.775 -121.257 563.947 -75.1975 587.865C20.5435 637.582 113.82 666.566 162.436 661.705C269.473 655.202 325.191 573.79 373.089 490.96L373.094 490.951C396.797 451.134 406.266 405.248 397.805 371.2C394.104 356.31 387.113 344.265 377.337 335.77Z" fill="url(#paint15_linear_20_7376)"/>
</g>
<mask id="mask8_20_7376" style="mask-type:alpha" maskUnits="userSpaceOnUse" x="-215" y="199" width="559" height="411">
<path d="M-177.105 479.149C-193.315 465.066 -204.785 451.652 -210.41 439.722C-216.468 426.874 -215.842 415.844 -208.55 406.939C-200.6 384.105 -177.176 353.735 -138.925 316.667C-111.061 289.664 -74.6897 258.816 -39.1377 232.034C17.9673 189.148 94.4054 188.243 165.334 229.611C189.226 245.459 214.44 261.473 238.825 276.96C270.361 296.989 300.148 315.906 319.206 329.603C335.205 341.191 343.96 362.263 343.868 388.922C343.781 414.19 335.537 442.577 321.246 466.806C289.384 522.998 267.023 546.993 251.102 561.618C220.593 589.643 186.472 604.942 146.787 608.388C104.741 614.059 28.0864 593.76 -53.2356 555.41C-105.185 530.914 -148.513 503.992 -177.105 479.149ZM321.875 333.336C320.806 332.406 319.699 331.528 318.554 330.696C299.525 317.021 269.752 298.112 238.231 278.093C213.841 262.603 188.622 246.586 164.749 230.748C94.2454 189.629 18.2674 190.508 -38.4646 233.113C-73.9776 259.866 -110.307 290.677 -138.137 317.647C-176.305 354.635 -199.634 384.872 -207.477 407.52L-207.517 407.635L-207.592 407.726C-214.587 416.2 -215.18 426.764 -209.353 439.121C-193.927 471.837 -133.927 515.936 -52.7666 554.21C28.3744 592.474 104.793 612.737 146.668 607.09C186.124 603.664 220.027 588.463 250.34 560.617C280.52 532.893 303.549 495.549 320.24 466.112L320.246 466.102C334.417 442.078 342.594 413.945 342.68 388.918C342.762 364.635 335.408 345.095 321.875 333.336Z" fill="url(#paint16_linear_20_7376)"/>
</mask>
<g mask="url(#mask8_20_7376)">
<path d="M-177.105 479.149C-193.315 465.066 -204.785 451.652 -210.41 439.722C-216.468 426.874 -215.842 415.844 -208.55 406.939C-200.6 384.105 -177.176 353.735 -138.925 316.667C-111.061 289.664 -74.6897 258.816 -39.1377 232.034C17.9673 189.148 94.4054 188.243 165.334 229.611C189.226 245.459 214.44 261.473 238.825 276.96C270.361 296.989 300.148 315.906 319.206 329.603C335.205 341.191 343.96 362.263 343.868 388.922C343.781 414.19 335.537 442.577 321.246 466.806C289.384 522.998 267.023 546.993 251.102 561.618C220.593 589.643 186.472 604.942 146.787 608.388C104.741 614.059 28.0864 593.76 -53.2356 555.41C-105.185 530.914 -148.513 503.992 -177.105 479.149ZM321.875 333.336C320.806 332.406 319.699 331.528 318.554 330.696C299.525 317.021 269.752 298.112 238.231 278.093C213.841 262.603 188.622 246.586 164.749 230.748C94.2454 189.629 18.2674 190.508 -38.4646 233.113C-73.9776 259.866 -110.307 290.677 -138.137 317.647C-176.305 354.635 -199.634 384.872 -207.477 407.52L-207.517 407.635L-207.592 407.726C-214.587 416.2 -215.18 426.764 -209.353 439.121C-193.927 471.837 -133.927 515.936 -52.7666 554.21C28.3744 592.474 104.793 612.737 146.668 607.09C186.124 603.664 220.027 588.463 250.34 560.617C280.52 532.893 303.549 495.549 320.24 466.112L320.246 466.102C334.417 442.078 342.594 413.945 342.68 388.918C342.762 364.635 335.408 345.095 321.875 333.336Z" fill="url(#paint17_linear_20_7376)"/>
</g>
<mask id="mask9_20_7376" style="mask-type:alpha" maskUnits="userSpaceOnUse" x="-163" y="222" width="449" height="334">
<path d="M-141.963 460.717C-148.666 454.893 -153.844 449.307 -157.243 444.113C-162.215 436.517 -163.41 429.824 -160.796 424.216C-165.54 403.391 -139.638 369.19 -117.027 344.122C-91.5318 315.858 -56.5388 283.917 -23.4198 258.679C5.10616 236.992 33.2882 225.259 62.7362 222.811C92.8102 220.31 123.334 227.554 156.052 244.954C203.643 274.037 248.533 308.066 270.434 331.665C281.056 343.216 286.43 361.361 285.568 382.759C284.762 402.777 278.463 424.322 268.285 441.869C242.366 489.039 203.343 544.367 131.045 553.62C96.0371 560.049 35.7892 548.362 -30.0918 522.355C-78.2338 503.349 -119.015 480.655 -141.963 460.717ZM249.693 313.437C225.634 292.532 191.366 267.852 155.569 245.976C123.049 228.681 92.7001 221.475 62.8161 223.96C33.5581 226.393 5.54611 238.06 -22.8219 259.626C-84.7249 306.798 -168.127 389.026 -159.729 424.14L-159.677 424.359L-159.774 424.558C-162.307 429.787 -161.169 436.139 -156.391 443.439C-141.47 466.237 -91.7558 496.786 -29.7348 521.267C35.9852 547.212 96.0352 558.878 130.9 552.476C202.775 543.276 241.597 488.21 267.391 441.266L267.398 441.254C277.482 423.87 283.723 402.53 284.521 382.706C285.369 361.638 280.105 343.803 269.699 332.484C264.321 326.692 257.551 320.265 249.693 313.437Z" fill="url(#paint18_linear_20_7376)"/>
</mask>
<g mask="url(#mask9_20_7376)">
<path d="M-141.963 460.717C-148.666 454.893 -153.844 449.307 -157.243 444.113C-162.215 436.517 -163.41 429.824 -160.796 424.216C-165.54 403.391 -139.638 369.19 -117.027 344.122C-91.5318 315.858 -56.5388 283.917 -23.4198 258.679C5.10616 236.992 33.2882 225.259 62.7362 222.811C92.8102 220.31 123.334 227.554 156.052 244.954C203.643 274.037 248.533 308.066 270.434 331.665C281.056 343.216 286.43 361.361 285.568 382.759C284.762 402.777 278.463 424.322 268.285 441.869C242.366 489.039 203.343 544.367 131.045 553.62C96.0371 560.049 35.7892 548.362 -30.0918 522.355C-78.2338 503.349 -119.015 480.655 -141.963 460.717ZM249.693 313.437C225.634 292.532 191.366 267.852 155.569 245.976C123.049 228.681 92.7001 221.475 62.8161 223.96C33.5581 226.393 5.54611 238.06 -22.8219 259.626C-84.7249 306.798 -168.127 389.026 -159.729 424.14L-159.677 424.359L-159.774 424.558C-162.307 429.787 -161.169 436.139 -156.391 443.439C-141.47 466.237 -91.7558 496.786 -29.7348 521.267C35.9852 547.212 96.0352 558.878 130.9 552.476C202.775 543.276 241.597 488.21 267.391 441.266L267.398 441.254C277.482 423.87 283.723 402.53 284.521 382.706C285.369 361.638 280.105 343.803 269.699 332.484C264.321 326.692 257.551 320.265 249.693 313.437Z" fill="url(#paint19_linear_20_7376)"/>
</g>
<mask id="mask10_20_7376" style="mask-type:alpha" maskUnits="userSpaceOnUse" x="-122" y="244" width="350" height="259">
<path d="M-107.043 448.665C-109.933 446.154 -111.896 443.79 -112.798 441.639C-118.174 438.214 -121.041 433.069 -121.323 426.352C-122.15 406.699 -101.08 377.78 -83.2591 356.98C-62.0541 332.231 -33.8081 305.442 -7.70309 285.321C21.8439 262.577 45.1489 250.576 67.8639 246.411C92.0969 241.968 117.169 246.379 146.769 260.295C179.495 277.684 208.881 306.519 221.658 333.769C233.038 358.292 227.375 395.305 215.326 416.926C191.626 462.645 157.976 490.207 115.313 498.844C98.6999 503.109 77.0839 503.833 51.0899 500.993C28.5839 498.532 3.42189 493.404 -21.6761 486.163C-60.9681 474.824 -93.7731 460.194 -107.043 448.665ZM-112.087 440.935L-112.027 441.087C-111.195 443.177 -109.296 445.481 -106.479 447.929C-77.2741 473.311 50.7999 514.378 115.127 497.866C157.538 489.28 190.978 461.88 214.54 416.424L214.547 416.409C226.467 395.025 232.084 358.435 220.848 334.225C208.157 307.159 178.932 278.494 146.392 261.205C116.978 247.377 92.0669 242.987 68.0139 247.397C45.4399 251.537 22.2489 263.485 -7.18111 286.139C-33.2381 306.223 -61.4321 332.962 -82.5971 357.665C-100.298 378.324 -121.227 407.002 -120.415 426.306C-120.146 432.711 -117.386 437.608 -112.218 440.854L-112.087 440.935Z" fill="url(#paint20_linear_20_7376)"/>
</mask>
<g mask="url(#mask10_20_7376)">
<path d="M-107.043 448.665C-109.933 446.154 -111.896 443.79 -112.798 441.639C-118.174 438.214 -121.041 433.069 -121.323 426.352C-122.15 406.699 -101.08 377.78 -83.2591 356.98C-62.0541 332.231 -33.8081 305.442 -7.70309 285.321C21.8439 262.577 45.1489 250.576 67.8639 246.411C92.0969 241.968 117.169 246.379 146.769 260.295C179.495 277.684 208.881 306.519 221.658 333.769C233.038 358.292 227.375 395.305 215.326 416.926C191.626 462.645 157.976 490.207 115.313 498.844C98.6999 503.109 77.0839 503.833 51.0899 500.993C28.5839 498.532 3.42189 493.404 -21.6761 486.163C-60.9681 474.824 -93.7731 460.194 -107.043 448.665ZM-112.087 440.935L-112.027 441.087C-111.195 443.177 -109.296 445.481 -106.479 447.929C-77.2741 473.311 50.7999 514.378 115.127 497.866C157.538 489.28 190.978 461.88 214.54 416.424L214.547 416.409C226.467 395.025 232.084 358.435 220.848 334.225C208.157 307.159 178.932 278.494 146.392 261.205C116.978 247.377 92.0669 242.987 68.0139 247.397C45.4399 251.537 22.2489 263.485 -7.18111 286.139C-33.2381 306.223 -61.4321 332.962 -82.5971 357.665C-100.298 378.324 -121.227 407.002 -120.415 426.306C-120.146 432.711 -117.386 437.608 -112.218 440.854L-112.087 440.935Z" fill="url(#paint21_linear_20_7376)"/>
</g>
<mask id="mask11_20_7376" style="mask-type:alpha" maskUnits="userSpaceOnUse" x="-88" y="266" width="261" height="196">
<path d="M-81.4561 452.315C-84.3491 449.801 -86.2582 446.606 -87.1662 442.74C-89.4422 433.046 -86.4271 414.13 -59.1391 379.07C-40.8471 355.568 -15.7432 330.481 8.01382 311.961C36.0898 290.075 54.4728 276.331 72.9868 270.018C92.1398 263.488 110.827 265.117 137.486 275.638C152.181 281.436 162.446 292.029 167.999 307.116C180.004 339.741 166.388 383.002 162.375 391.963C154.877 408.7 141.28 422.738 121.959 433.689C105.329 443.113 84.4258 450.294 59.8318 455.031C15.3758 463.593 -33.6421 462.543 -64.6931 458.707C-72.0011 457.804 -77.6021 455.664 -81.4561 452.315ZM152.618 285.649C148.212 281.82 143.076 278.743 137.227 276.435C110.739 265.982 92.1938 264.356 73.2159 270.827C54.8109 277.102 36.4739 290.814 8.45987 312.653C-34.8541 346.418 -93.5651 412.097 -86.4201 442.53C-84.3921 451.168 -77.0531 456.329 -64.6051 457.867C-33.6081 461.697 15.3249 462.744 59.6999 454.198C84.2179 449.476 105.046 442.323 121.607 432.937C140.777 422.072 154.261 408.162 161.684 391.59C165.668 382.698 179.185 339.771 167.286 307.434C164.028 298.58 159.118 291.296 152.618 285.649Z" fill="url(#paint22_linear_20_7376)"/>
</mask>
<g mask="url(#mask11_20_7376)">
<path d="M-81.4561 452.315C-84.3491 449.801 -86.2582 446.606 -87.1662 442.74C-89.4422 433.046 -86.4271 414.13 -59.1391 379.07C-40.8471 355.568 -15.7432 330.481 8.01382 311.961C36.0898 290.075 54.4728 276.331 72.9868 270.018C92.1398 263.488 110.827 265.117 137.486 275.638C152.181 281.436 162.446 292.029 167.999 307.116C180.004 339.741 166.388 383.002 162.375 391.963C154.877 408.7 141.28 422.738 121.959 433.689C105.329 443.113 84.4258 450.294 59.8318 455.031C15.3758 463.593 -33.6421 462.543 -64.6931 458.707C-72.0011 457.804 -77.6021 455.664 -81.4561 452.315ZM152.618 285.649C148.212 281.82 143.076 278.743 137.227 276.435C110.739 265.982 92.1938 264.356 73.2159 270.827C54.8109 277.102 36.4739 290.814 8.45987 312.653C-34.8541 346.418 -93.5651 412.097 -86.4201 442.53C-84.3921 451.168 -77.0531 456.329 -64.6051 457.867C-33.6081 461.697 15.3249 462.744 59.6999 454.198C84.2179 449.476 105.046 442.323 121.607 432.937C140.777 422.072 154.261 408.162 161.684 391.59C165.668 382.698 179.185 339.771 167.286 307.434C164.028 298.58 159.118 291.296 152.618 285.649Z" fill="url(#paint23_linear_20_7376)"/>
</g>
<defs>
<linearGradient id="paint0_linear_20_7376" x1="80.5701" y1="0.433264" x2="80.5701" y2="1046.56" gradientUnits="userSpaceOnUse">
<stop stop-color="white"/>
<stop offset="0.0436" stop-color="#B4B4B4"/>
<stop offset="0.1507"/>
<stop offset="0.1714" stop-color="#171717"/>
<stop offset="0.3859" stop-color="white"/>
<stop offset="0.6326" stop-color="#E6E6E6"/>
<stop offset="0.8567" stop-color="#1A1A1A"/>
<stop offset="0.9987"/>
</linearGradient>
<linearGradient id="paint1_linear_20_7376" x1="80.5703" y1="0.433105" x2="80.5703" y2="1046.56" gradientUnits="userSpaceOnUse">
<stop stop-color="#FF9800" stop-opacity="0.59"/>
<stop offset="1" stop-color="#34384C" stop-opacity="0"/>
</linearGradient>
<linearGradient id="paint2_linear_20_7376" x1="78.7524" y1="26.0912" x2="78.7524" y2="991.788" gradientUnits="userSpaceOnUse">
<stop stop-color="white"/>
<stop offset="0.0436" stop-color="#B4B4B4"/>
<stop offset="0.1507"/>
<stop offset="0.1714" stop-color="#171717"/>
<stop offset="0.3859" stop-color="white"/>
<stop offset="0.6326" stop-color="#E6E6E6"/>
<stop offset="0.8567" stop-color="#1A1A1A"/>
<stop offset="0.9987"/>
</linearGradient>
<linearGradient id="paint3_linear_20_7376" x1="78.7534" y1="26.0928" x2="78.7534" y2="991.788" gradientUnits="userSpaceOnUse">
<stop stop-color="#FF9800" stop-opacity="0.59"/>
<stop offset="1" stop-color="#34384C" stop-opacity="0"/>
</linearGradient>
<linearGradient id="paint4_linear_20_7376" x1="76.9164" y1="51.4435" x2="76.9164" y2="937.029" gradientUnits="userSpaceOnUse">
<stop stop-color="white"/>
<stop offset="0.0436" stop-color="#B4B4B4"/>
<stop offset="0.1507"/>
<stop offset="0.1714" stop-color="#171717"/>
<stop offset="0.3859" stop-color="white"/>
<stop offset="0.6326" stop-color="#E6E6E6"/>
<stop offset="0.8567" stop-color="#1A1A1A"/>
<stop offset="0.9987"/>
</linearGradient>
<linearGradient id="paint5_linear_20_7376" x1="76.9167" y1="51.4443" x2="76.9167" y2="937.03" gradientUnits="userSpaceOnUse">
<stop stop-color="#FF9800" stop-opacity="0.59"/>
<stop offset="1" stop-color="#34384C" stop-opacity="0"/>
</linearGradient>
<linearGradient id="paint6_linear_20_7376" x1="75.0559" y1="76.7944" x2="75.0559" y2="882.286" gradientUnits="userSpaceOnUse">
<stop stop-color="white"/>
<stop offset="0.0436" stop-color="#B4B4B4"/>
<stop offset="0.1507"/>
<stop offset="0.1714" stop-color="#171717"/>
<stop offset="0.3859" stop-color="white"/>
<stop offset="0.6326" stop-color="#E6E6E6"/>
<stop offset="0.8567" stop-color="#1A1A1A"/>
<stop offset="0.9987"/>
</linearGradient>
<linearGradient id="paint7_linear_20_7376" x1="75.0562" y1="76.7937" x2="75.0562" y2="882.285" gradientUnits="userSpaceOnUse">
<stop stop-color="#FF9800" stop-opacity="0.59"/>
<stop offset="1" stop-color="#34384C" stop-opacity="0"/>
</linearGradient>
<linearGradient id="paint8_linear_20_7376" x1="73.1609" y1="101.833" x2="73.1609" y2="827.566" gradientUnits="userSpaceOnUse">
<stop stop-color="white"/>
<stop offset="0.0436" stop-color="#B4B4B4"/>
<stop offset="0.1507"/>
<stop offset="0.1714" stop-color="#171717"/>
<stop offset="0.3859" stop-color="white"/>
<stop offset="0.6326" stop-color="#E6E6E6"/>
<stop offset="0.8567" stop-color="#1A1A1A"/>
<stop offset="0.9987"/>
</linearGradient>
<linearGradient id="paint9_linear_20_7376" x1="73.1615" y1="101.832" x2="73.1615" y2="827.566" gradientUnits="userSpaceOnUse">
<stop stop-color="#FF9800" stop-opacity="0.59"/>
<stop offset="1" stop-color="#34384C" stop-opacity="0"/>
</linearGradient>
<linearGradient id="paint10_linear_20_7376" x1="71.216" y1="126.73" x2="71.216" y2="772.875" gradientUnits="userSpaceOnUse">
<stop stop-color="white"/>
<stop offset="0.0436" stop-color="#B4B4B4"/>
<stop offset="0.1507"/>
<stop offset="0.1714" stop-color="#171717"/>
<stop offset="0.3859" stop-color="white"/>
<stop offset="0.6326" stop-color="#E6E6E6"/>
<stop offset="0.8567" stop-color="#1A1A1A"/>
<stop offset="0.9987"/>
</linearGradient>
<linearGradient id="paint11_linear_20_7376" x1="71.2158" y1="126.73" x2="71.2158" y2="772.876" gradientUnits="userSpaceOnUse">
<stop stop-color="#FF9800" stop-opacity="0.59"/>
<stop offset="1" stop-color="#34384C" stop-opacity="0"/>
</linearGradient>
<linearGradient id="paint12_linear_20_7376" x1="69.1943" y1="151.27" x2="69.1943" y2="718.247" gradientUnits="userSpaceOnUse">
<stop stop-color="white"/>
<stop offset="0.0436" stop-color="#B4B4B4"/>
<stop offset="0.1507"/>
<stop offset="0.1714" stop-color="#171717"/>
<stop offset="0.3859" stop-color="white"/>
<stop offset="0.6326" stop-color="#E6E6E6"/>
<stop offset="0.8567" stop-color="#1A1A1A"/>
<stop offset="0.9987"/>
</linearGradient>
<linearGradient id="paint13_linear_20_7376" x1="69.1953" y1="151.27" x2="69.1953" y2="718.247" gradientUnits="userSpaceOnUse">
<stop stop-color="#FF9800" stop-opacity="0.59"/>
<stop offset="1" stop-color="#34384C" stop-opacity="0"/>
</linearGradient>
<linearGradient id="paint14_linear_20_7376" x1="67.0444" y1="175.409" x2="67.0444" y2="663.694" gradientUnits="userSpaceOnUse">
<stop stop-color="white"/>
<stop offset="0.0436" stop-color="#B4B4B4"/>
<stop offset="0.1507"/>
<stop offset="0.1714" stop-color="#171717"/>
<stop offset="0.3859" stop-color="white"/>
<stop offset="0.6326" stop-color="#E6E6E6"/>
<stop offset="0.8567" stop-color="#1A1A1A"/>
<stop offset="0.9987"/>
</linearGradient>
<linearGradient id="paint15_linear_20_7376" x1="67.0449" y1="175.409" x2="67.0449" y2="663.695" gradientUnits="userSpaceOnUse">
<stop stop-color="#FF9800" stop-opacity="0.59"/>
<stop offset="1" stop-color="#34384C" stop-opacity="0"/>
</linearGradient>
<linearGradient id="paint16_linear_20_7376" x1="64.6702" y1="199.216" x2="64.6702" y2="609.33" gradientUnits="userSpaceOnUse">
<stop stop-color="white"/>
<stop offset="0.0436" stop-color="#B4B4B4"/>
<stop offset="0.1507"/>
<stop offset="0.1714" stop-color="#171717"/>
<stop offset="0.3859" stop-color="white"/>
<stop offset="0.6326" stop-color="#E6E6E6"/>
<stop offset="0.8567" stop-color="#1A1A1A"/>
<stop offset="0.9987"/>
</linearGradient>
<linearGradient id="paint17_linear_20_7376" x1="64.6699" y1="199.215" x2="64.6699" y2="609.327" gradientUnits="userSpaceOnUse">
<stop stop-color="#FF9800" stop-opacity="0.59"/>
<stop offset="1" stop-color="#34384C" stop-opacity="0"/>
</linearGradient>
<linearGradient id="paint18_linear_20_7376" x1="61.7581" y1="222.329" x2="61.7581" y2="555.351" gradientUnits="userSpaceOnUse">
<stop stop-color="white"/>
<stop offset="0.0436" stop-color="#B4B4B4"/>
<stop offset="0.1507"/>
<stop offset="0.1714" stop-color="#171717"/>
<stop offset="0.3859" stop-color="white"/>
<stop offset="0.6326" stop-color="#E6E6E6"/>
<stop offset="0.8567" stop-color="#1A1A1A"/>
<stop offset="0.9987"/>
</linearGradient>
<linearGradient id="paint19_linear_20_7376" x1="61.7576" y1="222.33" x2="61.7576" y2="555.353" gradientUnits="userSpaceOnUse">
<stop stop-color="#FF9800" stop-opacity="0.59"/>
<stop offset="1" stop-color="#34384C" stop-opacity="0"/>
</linearGradient>
<linearGradient id="paint20_linear_20_7376" x1="53.2428" y1="244.748" x2="53.2428" y2="502.691" gradientUnits="userSpaceOnUse">
<stop stop-color="white"/>
<stop offset="0.0436" stop-color="#B4B4B4"/>
<stop offset="0.1507"/>
<stop offset="0.1714" stop-color="#171717"/>
<stop offset="0.3859" stop-color="white"/>
<stop offset="0.6326" stop-color="#E6E6E6"/>
<stop offset="0.8567" stop-color="#1A1A1A"/>
<stop offset="0.9987"/>
</linearGradient>
<linearGradient id="paint21_linear_20_7376" x1="53.2431" y1="244.749" x2="53.2431" y2="502.692" gradientUnits="userSpaceOnUse">
<stop stop-color="#FF9800" stop-opacity="0.59"/>
<stop offset="1" stop-color="#34384C" stop-opacity="0"/>
</linearGradient>
<linearGradient id="paint22_linear_20_7376" x1="42.5321" y1="266.144" x2="42.5321" y2="461.571" gradientUnits="userSpaceOnUse">
<stop stop-color="white"/>
<stop offset="0.0436" stop-color="#B4B4B4"/>
<stop offset="0.1507"/>
<stop offset="0.1714" stop-color="#171717"/>
<stop offset="0.3859" stop-color="white"/>
<stop offset="0.6326" stop-color="#E6E6E6"/>
<stop offset="0.8567" stop-color="#1A1A1A"/>
<stop offset="0.9987"/>
</linearGradient>
<linearGradient id="paint23_linear_20_7376" x1="42.5316" y1="266.144" x2="42.5316" y2="461.571" gradientUnits="userSpaceOnUse">
<stop stop-color="#FF9800" stop-opacity="0.59"/>
<stop offset="1" stop-color="#34384C" stop-opacity="0"/>
</linearGradient>
</defs>
</svg>
