<svg width="25" height="24" viewBox="0 0 25 24" fill="none" xmlns="http://www.w3.org/2000/svg">
<path fill-rule="evenodd" clip-rule="evenodd" d="M8.49372 3.88583L8.04805 5H5.24805C3.59119 5 2.24805 6.34315 2.24805 8V19C2.24805 20.6569 3.59119 22 5.24805 22H19.248C20.9049 22 22.248 20.6569 22.248 19V8C22.248 6.34315 20.9049 5 19.248 5H16.448L16.0024 3.88583C15.5468 2.74685 14.4437 2 13.2169 2H11.2791C10.0524 2 8.94931 2.74685 8.49372 3.88583ZM13.2169 4H11.2791C10.8702 4 10.5025 4.24895 10.3507 4.62861L10.2021 5H14.294L14.1454 4.62861C13.9936 4.24895 13.6259 4 13.2169 4ZM19.248 7C19.8003 7 20.248 7.44771 20.248 8V11C20.248 11.5523 19.8003 12 19.248 12H14.9805C14.6347 11.4022 13.9883 11 13.248 11H11.248C10.5078 11 9.86142 11.4022 9.51561 12H5.24805C4.69576 12 4.24805 11.5523 4.24805 11V8C4.24805 7.44772 4.69576 7 5.24805 7H19.248ZM9.51561 14H5.24805C4.89741 14 4.56083 13.9398 4.24805 13.8293V19C4.24805 19.5523 4.69576 20 5.24805 20H19.248C19.8003 20 20.248 19.5523 20.248 19V13.8293C19.9353 13.9398 19.5987 14 19.248 14H14.9805C14.6347 14.5978 13.9883 15 13.248 15H11.248C10.5078 15 9.86142 14.5978 9.51561 14Z" fill="white"/>
</svg>
