<svg width="24" height="25" viewBox="0 0 24 25" fill="none" xmlns="http://www.w3.org/2000/svg">
<path fill-rule="evenodd" clip-rule="evenodd" d="M2.99311 9.69951C2.36096 10.2684 2 11.0789 2 11.9294V19.5933C2 21.2502 3.34315 22.5933 5 22.5933H19C20.6569 22.5933 22 21.2502 22 19.5933V11.9294C22 11.0789 21.639 10.2684 21.0069 9.69951L14.0069 3.39951C12.866 2.37269 11.134 2.37269 9.9931 3.39951L2.99311 9.69951ZM11 13.5933C9.89543 13.5933 9 14.4887 9 15.5933V19.5933C9 20.1456 9.44772 20.5933 10 20.5933H14C14.5523 20.5933 15 20.1456 15 19.5933V15.5933C15 14.4887 14.1046 13.5933 13 13.5933H11Z" fill="#1A1D1F"/>
</svg>
