<svg width="24" height="24" viewBox="0 0 24 24" fill="none" xmlns="http://www.w3.org/2000/svg">
<path fill-rule="evenodd" clip-rule="evenodd" d="M7.24295 9.86463L3.03633 3.5547C2.59329 2.89015 3.06969 2 3.86838 2H7.9295C8.5982 2 9.22267 2.3342 9.5936 2.8906L11.9999 6.50003L14.4062 2.8906C14.7771 2.3342 15.4016 2 16.0703 2H20.1314C20.9301 2 21.4065 2.89015 20.9634 3.5547L16.7568 9.86463C18.1364 11.1432 18.9999 12.9707 18.9999 15C18.9999 18.866 15.8659 22 11.9999 22C8.13388 22 4.99988 18.866 4.99988 15C4.99988 12.9707 5.86336 11.1432 7.24295 9.86463ZM10.6791 8.12442L7.9295 4L5.7369 4L8.88868 8.72767C9.44724 8.45008 10.0481 8.2449 10.6791 8.12442ZM15.1111 8.72767L18.2629 4L16.0703 4L13.3207 8.12442C13.9516 8.2449 14.5525 8.45008 15.1111 8.72767ZM16.9999 15C16.9999 17.7614 14.7613 20 11.9999 20C9.23845 20 6.99988 17.7614 6.99988 15C6.99988 12.2386 9.23845 10 11.9999 10C14.7613 10 16.9999 12.2386 16.9999 15Z" fill="#1A1D1F"/>
<path fill-rule="evenodd" clip-rule="evenodd" d="M12 16C12.5523 16 13 15.5523 13 15C13 14.4477 12.5523 14 12 14C11.4477 14 11 14.4477 11 15C11 15.5523 11.4477 16 12 16ZM15 15C15 16.6569 13.6569 18 12 18C10.3431 18 9 16.6569 9 15C9 13.3431 10.3431 12 12 12C13.6569 12 15 13.3431 15 15Z" fill="#1A1D1F"/>
</svg>
