<svg width="24" height="25" viewBox="0 0 24 25" fill="none" xmlns="http://www.w3.org/2000/svg">
<path d="M10 6.59326C8.41775 6.59326 6.87104 7.06245 5.55544 7.9415C4.23985 8.82056 3.21447 10.07 2.60897 11.5318C2.00347 12.9936 1.84504 14.6021 2.15372 16.154C2.4624 17.7058 3.22433 19.1313 4.34315 20.2501C5.46197 21.3689 6.88743 22.1309 8.43928 22.4395C9.99113 22.7482 11.5997 22.5898 13.0615 21.9843C14.5233 21.3788 15.7727 20.3534 16.6518 19.0378C17.5308 17.7222 18 16.1755 18 14.5933C18 14.041 17.5523 13.5933 17 13.5933H12C11.4477 13.5933 11 13.1455 11 12.5933V7.59326C11 7.04098 10.5523 6.59326 10 6.59326Z" fill="#6F767E"/>
<path d="M14 2.59326C13.7348 2.59326 13.4804 2.69862 13.2929 2.88615C13.1054 3.07369 13 3.32805 13 3.59326V10.5933C13 10.8585 13.1054 11.1128 13.2929 11.3004C13.4804 11.4879 13.7348 11.5933 14 11.5933L21 11.5933C21.2652 11.5933 21.5196 11.4879 21.7071 11.3004C21.8946 11.1128 22 10.8585 22 10.5933C22 8.47153 21.1571 6.4367 19.6569 4.93641C18.1566 3.43612 16.1217 2.59326 14 2.59326Z" fill="#6F767E"/>
</svg>
