<svg width="24" height="25" viewBox="0 0 24 25" fill="none" xmlns="http://www.w3.org/2000/svg">
<path fill-rule="evenodd" clip-rule="evenodd" d="M9.4889 5.64743C9.37598 5.12046 8.62402 5.12044 8.5111 5.64743L7.31658 11.2219C7.02017 12.6051 5.79778 13.5933 4.38317 13.5933H3C2.44772 13.5933 2 13.1456 2 12.5933C2 12.041 2.44772 11.5933 3 11.5933H4.38317C4.85471 11.5933 5.26217 11.2639 5.36097 10.8028L6.55549 5.22838C7.12011 2.59348 10.8799 2.59346 11.4445 5.22837L14.5111 19.5391C14.624 20.0661 15.376 20.0661 15.4889 19.5391L16.6834 13.9647C16.9798 12.5815 18.2022 11.5933 19.6168 11.5933H21C21.5523 11.5933 22 12.041 22 12.5933C22 13.1456 21.5523 13.5933 21 13.5933H19.6168C19.1453 13.5933 18.7378 13.9227 18.639 14.3838L17.4445 19.9582C16.8799 22.5931 13.1201 22.5931 12.5555 19.9582L9.4889 5.64743Z" fill="#6F767E"/>
</svg>
